<?xml version="1.0" encoding="UTF-8"?>
<svg xmlns="http://www.w3.org/2000/svg" xmlns:xlink="http://www.w3.org/1999/xlink" width="1920" height="1080" viewBox="0 0 1920 1080">
<defs>
<g>
<g id="glyph-0-0">
<path d="M 1.40625 0 L 0.328125 -9.515625 L 1.4375 -9.515625 C 1.476562 -9.171875 1.515625 -8.820312 1.546875 -8.46875 C 1.578125 -8.113281 1.609375 -7.757812 1.640625 -7.40625 C 1.671875 -7.0625 1.703125 -6.710938 1.734375 -6.359375 C 1.765625 -6.015625 1.800781 -5.664062 1.84375 -5.3125 C 1.863281 -5.039062 1.882812 -4.75 1.90625 -4.4375 C 1.9375 -4.125 1.960938 -3.8125 1.984375 -3.5 C 2.015625 -3.1875 2.035156 -2.882812 2.046875 -2.59375 C 2.066406 -2.3125 2.082031 -2.054688 2.09375 -1.828125 C 2.113281 -1.609375 2.125 -1.4375 2.125 -1.3125 L 2.140625 -1.3125 C 2.171875 -1.457031 2.207031 -1.644531 2.25 -1.875 C 2.289062 -2.101562 2.335938 -2.34375 2.390625 -2.59375 C 2.453125 -2.851562 2.507812 -3.109375 2.5625 -3.359375 C 2.625 -3.617188 2.675781 -3.847656 2.71875 -4.046875 L 3.4375 -7.140625 L 4.578125 -7.140625 L 5.328125 -4.03125 C 5.378906 -3.789062 5.4375 -3.546875 5.5 -3.296875 C 5.5625 -3.046875 5.617188 -2.796875 5.671875 -2.546875 C 5.722656 -2.304688 5.769531 -2.078125 5.8125 -1.859375 C 5.851562 -1.640625 5.890625 -1.457031 5.921875 -1.3125 L 5.9375 -1.3125 C 5.945312 -1.4375 5.957031 -1.601562 5.96875 -1.8125 C 5.976562 -2.019531 5.988281 -2.253906 6 -2.515625 C 6.019531 -2.773438 6.035156 -3.0625 6.046875 -3.375 C 6.066406 -3.6875 6.085938 -4.007812 6.109375 -4.34375 C 6.140625 -4.675781 6.171875 -5.015625 6.203125 -5.359375 C 6.222656 -5.628906 6.242188 -5.90625 6.265625 -6.1875 C 6.285156 -6.46875 6.3125 -6.742188 6.34375 -7.015625 C 6.375 -7.296875 6.398438 -7.570312 6.421875 -7.84375 C 6.441406 -8.125 6.460938 -8.40625 6.484375 -8.6875 C 6.503906 -8.96875 6.53125 -9.242188 6.5625 -9.515625 L 7.65625 -9.515625 L 6.703125 0 L 5.40625 0 L 4.359375 -4.375 C 4.296875 -4.632812 4.238281 -4.875 4.1875 -5.09375 C 4.144531 -5.3125 4.109375 -5.5 4.078125 -5.65625 C 4.054688 -5.8125 4.039062 -5.925781 4.03125 -6 L 4 -6 C 3.988281 -5.925781 3.972656 -5.8125 3.953125 -5.65625 C 3.929688 -5.507812 3.894531 -5.328125 3.84375 -5.109375 C 3.800781 -4.890625 3.75 -4.644531 3.6875 -4.375 L 2.671875 0 Z "/>
</g>
<g id="glyph-0-1">
<path d="M 1.0625 0 L 1.0625 -10.125 L 2.265625 -10.125 L 2.265625 -7.25 C 2.265625 -7.082031 2.253906 -6.867188 2.234375 -6.609375 C 2.222656 -6.347656 2.21875 -6.144531 2.21875 -6 L 2.28125 -6 C 2.425781 -6.289062 2.613281 -6.53125 2.84375 -6.71875 C 3.070312 -6.90625 3.328125 -7.046875 3.609375 -7.140625 C 3.890625 -7.234375 4.191406 -7.28125 4.515625 -7.28125 C 5.253906 -7.28125 5.851562 -7.070312 6.3125 -6.65625 C 6.769531 -6.238281 7 -5.578125 7 -4.671875 L 7 0 L 5.796875 0 L 5.796875 -4.421875 C 5.796875 -5.066406 5.65625 -5.539062 5.375 -5.84375 C 5.101562 -6.144531 4.71875 -6.296875 4.21875 -6.296875 C 3.820312 -6.296875 3.476562 -6.191406 3.1875 -5.984375 C 2.894531 -5.785156 2.664062 -5.492188 2.5 -5.109375 C 2.34375 -4.722656 2.265625 -4.253906 2.265625 -3.703125 L 2.265625 0 Z "/>
</g>
<g id="glyph-0-2">
<path d="M 1.0625 0 L 1.0625 -0.796875 L 3.609375 -1 L 3.609375 -6.140625 L 1.28125 -6.3125 L 1.28125 -7.140625 L 4.8125 -7.140625 L 4.8125 -1 L 7.203125 -0.796875 L 7.203125 0 Z M 4.09375 -8.4375 C 3.863281 -8.4375 3.664062 -8.503906 3.5 -8.640625 C 3.332031 -8.785156 3.25 -9 3.25 -9.28125 C 3.25 -9.570312 3.332031 -9.785156 3.5 -9.921875 C 3.664062 -10.054688 3.863281 -10.125 4.09375 -10.125 C 4.320312 -10.125 4.519531 -10.054688 4.6875 -9.921875 C 4.851562 -9.785156 4.9375 -9.570312 4.9375 -9.28125 C 4.9375 -9 4.851562 -8.785156 4.6875 -8.640625 C 4.519531 -8.503906 4.320312 -8.4375 4.09375 -8.4375 Z "/>
</g>
<g id="glyph-0-3">
<path d="M 3.71875 0.140625 C 3.269531 0.140625 2.84375 0.0976562 2.4375 0.015625 C 2.039062 -0.0664062 1.695312 -0.175781 1.40625 -0.3125 L 1.40625 -1.421875 C 1.707031 -1.285156 2.046875 -1.15625 2.421875 -1.03125 C 2.804688 -0.914062 3.257812 -0.859375 3.78125 -0.859375 C 4.375 -0.859375 4.789062 -0.945312 5.03125 -1.125 C 5.269531 -1.3125 5.390625 -1.578125 5.390625 -1.921875 C 5.390625 -2.109375 5.347656 -2.257812 5.265625 -2.375 C 5.179688 -2.5 5.019531 -2.625 4.78125 -2.75 C 4.539062 -2.875 4.191406 -3.03125 3.734375 -3.21875 C 3.265625 -3.425781 2.863281 -3.617188 2.53125 -3.796875 C 2.207031 -3.972656 1.957031 -4.179688 1.78125 -4.421875 C 1.601562 -4.671875 1.515625 -4.988281 1.515625 -5.375 C 1.515625 -5.800781 1.625 -6.148438 1.84375 -6.421875 C 2.0625 -6.703125 2.375 -6.914062 2.78125 -7.0625 C 3.195312 -7.207031 3.691406 -7.28125 4.265625 -7.28125 C 4.648438 -7.28125 5.019531 -7.242188 5.375 -7.171875 C 5.738281 -7.097656 6.109375 -6.984375 6.484375 -6.828125 L 6.125 -5.890625 C 5.769531 -6.046875 5.441406 -6.148438 5.140625 -6.203125 C 4.847656 -6.253906 4.554688 -6.28125 4.265625 -6.28125 C 3.710938 -6.28125 3.304688 -6.207031 3.046875 -6.0625 C 2.796875 -5.914062 2.671875 -5.691406 2.671875 -5.390625 C 2.671875 -5.203125 2.726562 -5.039062 2.84375 -4.90625 C 2.957031 -4.769531 3.140625 -4.640625 3.390625 -4.515625 C 3.640625 -4.390625 3.972656 -4.238281 4.390625 -4.0625 C 4.867188 -3.863281 5.269531 -3.679688 5.59375 -3.515625 C 5.925781 -3.347656 6.175781 -3.144531 6.34375 -2.90625 C 6.507812 -2.675781 6.59375 -2.359375 6.59375 -1.953125 C 6.59375 -1.492188 6.484375 -1.109375 6.265625 -0.796875 C 6.046875 -0.492188 5.722656 -0.257812 5.296875 -0.09375 C 4.878906 0.0625 4.351562 0.140625 3.71875 0.140625 Z "/>
</g>
<g id="glyph-0-4">
<path d="M 1.0625 3.203125 L 1.0625 -7.140625 L 2.046875 -7.140625 L 2.203125 -6.171875 L 2.25 -6.171875 C 2.394531 -6.398438 2.5625 -6.597656 2.75 -6.765625 C 2.945312 -6.929688 3.179688 -7.054688 3.453125 -7.140625 C 3.722656 -7.234375 4.035156 -7.28125 4.390625 -7.28125 C 4.816406 -7.28125 5.207031 -7.203125 5.5625 -7.046875 C 5.925781 -6.890625 6.234375 -6.65625 6.484375 -6.34375 C 6.734375 -6.03125 6.925781 -5.640625 7.0625 -5.171875 C 7.195312 -4.710938 7.265625 -4.179688 7.265625 -3.578125 C 7.265625 -2.773438 7.144531 -2.09375 6.90625 -1.53125 C 6.675781 -0.976562 6.34375 -0.5625 5.90625 -0.28125 C 5.476562 0 4.972656 0.140625 4.390625 0.140625 C 4.035156 0.140625 3.722656 0.09375 3.453125 0 C 3.179688 -0.101562 2.945312 -0.234375 2.75 -0.390625 C 2.5625 -0.554688 2.394531 -0.734375 2.25 -0.921875 L 2.171875 -0.921875 C 2.203125 -0.753906 2.222656 -0.578125 2.234375 -0.390625 C 2.242188 -0.210938 2.25 -0.0351562 2.25 0.140625 L 2.25 3.203125 Z M 4.125 -0.84375 C 4.789062 -0.84375 5.273438 -1.070312 5.578125 -1.53125 C 5.878906 -1.988281 6.03125 -2.679688 6.03125 -3.609375 C 6.03125 -4.523438 5.878906 -5.203125 5.578125 -5.640625 C 5.285156 -6.078125 4.800781 -6.296875 4.125 -6.296875 C 3.46875 -6.296875 2.988281 -6.082031 2.6875 -5.65625 C 2.394531 -5.238281 2.25 -4.640625 2.25 -3.859375 L 2.25 -3.578125 C 2.25 -2.734375 2.382812 -2.066406 2.65625 -1.578125 C 2.925781 -1.085938 3.414062 -0.84375 4.125 -0.84375 Z "/>
</g>
<g id="glyph-0-5">
<path d="M 4.484375 0.140625 C 3.722656 0.140625 3.066406 0 2.515625 -0.28125 C 1.960938 -0.570312 1.535156 -0.988281 1.234375 -1.53125 C 0.941406 -2.082031 0.796875 -2.753906 0.796875 -3.546875 C 0.796875 -4.328125 0.9375 -4.992188 1.21875 -5.546875 C 1.507812 -6.109375 1.90625 -6.535156 2.40625 -6.828125 C 2.914062 -7.128906 3.507812 -7.28125 4.1875 -7.28125 C 4.8125 -7.28125 5.347656 -7.140625 5.796875 -6.859375 C 6.242188 -6.585938 6.585938 -6.195312 6.828125 -5.6875 C 7.078125 -5.1875 7.203125 -4.585938 7.203125 -3.890625 L 7.203125 -3.34375 L 2.015625 -3.34375 C 2.035156 -2.71875 2.148438 -2.222656 2.359375 -1.859375 C 2.578125 -1.492188 2.875 -1.234375 3.25 -1.078125 C 3.632812 -0.929688 4.078125 -0.859375 4.578125 -0.859375 C 4.960938 -0.859375 5.34375 -0.910156 5.71875 -1.015625 C 6.101562 -1.117188 6.488281 -1.257812 6.875 -1.4375 L 6.875 -0.375 C 6.46875 -0.195312 6.054688 -0.0664062 5.640625 0.015625 C 5.234375 0.0976562 4.847656 0.140625 4.484375 0.140625 Z M 6 -4.3125 C 5.976562 -4.726562 5.894531 -5.082031 5.75 -5.375 C 5.613281 -5.675781 5.414062 -5.90625 5.15625 -6.0625 C 4.894531 -6.21875 4.570312 -6.296875 4.1875 -6.296875 C 3.59375 -6.296875 3.109375 -6.113281 2.734375 -5.75 C 2.367188 -5.394531 2.140625 -4.914062 2.046875 -4.3125 Z "/>
</g>
<g id="glyph-0-6">
<path d="M 0.828125 0 L 0.828125 -0.796875 L 3 -1 L 3 -6.140625 L 1.046875 -6.3125 L 1.046875 -7.140625 L 3.953125 -7.140625 L 4.125 -5.84375 L 4.171875 -5.84375 C 4.421875 -6.3125 4.691406 -6.664062 4.984375 -6.90625 C 5.285156 -7.15625 5.679688 -7.28125 6.171875 -7.28125 C 6.472656 -7.28125 6.738281 -7.253906 6.96875 -7.203125 C 7.207031 -7.148438 7.425781 -7.078125 7.625 -6.984375 L 7.296875 -5.9375 C 7.160156 -6.007812 6.992188 -6.070312 6.796875 -6.125 C 6.597656 -6.1875 6.390625 -6.21875 6.171875 -6.21875 C 5.785156 -6.21875 5.445312 -6.097656 5.15625 -5.859375 C 4.863281 -5.617188 4.632812 -5.300781 4.46875 -4.90625 C 4.300781 -4.507812 4.21875 -4.066406 4.21875 -3.578125 L 4.21875 -1 L 6.296875 -0.796875 L 6.296875 0 Z "/>
</g>
</g>
</defs>
<g fill="rgb(10.196078%, 18.823529%, 25.098039%)" fill-opacity="1">
<use xlink:href="#glyph-0-0" x="30" y="34.25293"/>
<use xlink:href="#glyph-0-1" x="38" y="34.25293"/>
<use xlink:href="#glyph-0-2" x="46" y="34.25293"/>
<use xlink:href="#glyph-0-3" x="54" y="34.25293"/>
<use xlink:href="#glyph-0-4" x="62" y="34.25293"/>
<use xlink:href="#glyph-0-5" x="70" y="34.25293"/>
<use xlink:href="#glyph-0-6" x="78" y="34.25293"/>
</g>
</svg>
