<?xml version="1.0" encoding="UTF-8"?>
<svg xmlns="http://www.w3.org/2000/svg" xmlns:xlink="http://www.w3.org/1999/xlink" width="1920" height="1080" viewBox="0 0 1920 1080">
<defs>
<g>
<g id="glyph-0-0">
</g>
<g id="glyph-0-1">
<path d="M 3.984375 0.140625 C 3.242188 0.140625 2.640625 -0.0546875 2.171875 -0.453125 C 1.703125 -0.847656 1.351562 -1.410156 1.125 -2.140625 C 0.90625 -2.867188 0.796875 -3.742188 0.796875 -4.765625 C 0.796875 -5.796875 0.898438 -6.671875 1.109375 -7.390625 C 1.328125 -8.117188 1.671875 -8.675781 2.140625 -9.0625 C 2.609375 -9.457031 3.222656 -9.65625 3.984375 -9.65625 C 4.734375 -9.65625 5.34375 -9.460938 5.8125 -9.078125 C 6.289062 -8.691406 6.640625 -8.132812 6.859375 -7.40625 C 7.085938 -6.675781 7.203125 -5.796875 7.203125 -4.765625 C 7.203125 -3.992188 7.140625 -3.304688 7.015625 -2.703125 C 6.898438 -2.097656 6.710938 -1.582031 6.453125 -1.15625 C 6.203125 -0.738281 5.867188 -0.414062 5.453125 -0.1875 C 5.046875 0.03125 4.554688 0.140625 3.984375 0.140625 Z M 2.46875 -1.328125 L 1.671875 -2.03125 L 5.40625 -8.34375 L 6.109375 -7.46875 Z M 3.984375 -0.921875 C 4.710938 -0.921875 5.25 -1.234375 5.59375 -1.859375 C 5.945312 -2.484375 6.125 -3.453125 6.125 -4.765625 C 6.125 -5.609375 6.046875 -6.3125 5.890625 -6.875 C 5.742188 -7.445312 5.507812 -7.875 5.1875 -8.15625 C 4.875 -8.445312 4.472656 -8.59375 3.984375 -8.59375 C 3.503906 -8.59375 3.113281 -8.453125 2.8125 -8.171875 C 2.507812 -7.898438 2.285156 -7.484375 2.140625 -6.921875 C 1.992188 -6.359375 1.921875 -5.640625 1.921875 -4.765625 C 1.921875 -3.535156 2.078125 -2.585938 2.390625 -1.921875 C 2.703125 -1.253906 3.234375 -0.921875 3.984375 -0.921875 Z "/>
</g>
<g id="glyph-0-2">
<path d="M 1.109375 0 L 5.84375 -9.515625 L 6.875 -9.515625 L 2.125 0 Z M 6.078125 0.125 C 5.535156 0.125 5.082031 -0.0703125 4.71875 -0.46875 C 4.363281 -0.863281 4.1875 -1.421875 4.1875 -2.140625 C 4.1875 -2.859375 4.359375 -3.410156 4.703125 -3.796875 C 5.046875 -4.191406 5.515625 -4.390625 6.109375 -4.390625 C 6.648438 -4.390625 7.097656 -4.191406 7.453125 -3.796875 C 7.816406 -3.410156 8 -2.859375 8 -2.140625 C 8 -1.421875 7.820312 -0.863281 7.46875 -0.46875 C 7.125 -0.0703125 6.660156 0.125 6.078125 0.125 Z M 6.09375 -0.65625 C 6.394531 -0.65625 6.617188 -0.773438 6.765625 -1.015625 C 6.921875 -1.253906 7 -1.628906 7 -2.140625 C 7 -2.671875 6.921875 -3.046875 6.765625 -3.265625 C 6.617188 -3.492188 6.394531 -3.609375 6.09375 -3.609375 C 5.789062 -3.609375 5.5625 -3.492188 5.40625 -3.265625 C 5.25 -3.046875 5.171875 -2.671875 5.171875 -2.140625 C 5.171875 -1.628906 5.25 -1.253906 5.40625 -1.015625 C 5.5625 -0.773438 5.789062 -0.65625 6.09375 -0.65625 Z M 1.890625 -5.109375 C 1.347656 -5.109375 0.894531 -5.304688 0.53125 -5.703125 C 0.175781 -6.097656 0 -6.65625 0 -7.375 C 0 -8.09375 0.171875 -8.644531 0.515625 -9.03125 C 0.859375 -9.425781 1.328125 -9.625 1.921875 -9.625 C 2.460938 -9.625 2.910156 -9.425781 3.265625 -9.03125 C 3.628906 -8.644531 3.8125 -8.09375 3.8125 -7.375 C 3.8125 -6.65625 3.632812 -6.097656 3.28125 -5.703125 C 2.9375 -5.304688 2.472656 -5.109375 1.890625 -5.109375 Z M 1.90625 -5.875 C 2.207031 -5.875 2.429688 -5.992188 2.578125 -6.234375 C 2.734375 -6.472656 2.8125 -6.851562 2.8125 -7.375 C 2.8125 -7.894531 2.734375 -8.269531 2.578125 -8.5 C 2.429688 -8.726562 2.207031 -8.84375 1.90625 -8.84375 C 1.601562 -8.84375 1.375 -8.726562 1.21875 -8.5 C 1.0625 -8.269531 0.984375 -7.894531 0.984375 -7.375 C 0.984375 -6.851562 1.0625 -6.472656 1.21875 -6.234375 C 1.375 -5.992188 1.601562 -5.875 1.90625 -5.875 Z "/>
</g>
</g>
</defs>
<g fill="rgb(0%, 100%, 53.333333%)" fill-opacity="1">
<use xlink:href="#glyph-0-0" x="30" y="34.25293"/>
<use xlink:href="#glyph-0-0" x="38" y="34.25293"/>
<use xlink:href="#glyph-0-1" x="46" y="34.25293"/>
<use xlink:href="#glyph-0-2" x="54" y="34.25293"/>
</g>
</svg>
